<?xml version="1.0" encoding="iso-8859-1"?>
<!-- Generator: Adobe Illustrator 19.0.0, SVG Export Plug-In . SVG Version: 6.00 Build 0)  -->
<svg version="1.1" id="Layer_1" xmlns="http://www.w3.org/2000/svg" xmlns:xlink="http://www.w3.org/1999/xlink" x="0px" y="0px"
	 viewBox="0 0 512 512" style="enable-background:new 0 0 512 512;" xml:space="preserve">
<path style="fill:#314E55;" d="M256,0c-38.046,0-74.147,8.404-106.636,23.357c-0.147-0.007-0.27-0.084-0.419-0.084
	c-3.031,0-5.597,1.543-7.297,3.786C57.753,69.136,0,155.927,0,256c0,128.846,95.695,235.714,219.735,253.386
	c0.495,0.082,0.973,0.241,1.483,0.241c0.065,0,0.132-0.027,0.198-0.027c11.319,1.536,22.849,2.4,34.583,2.4
	c141.159,0,256-114.841,256-256S397.159,0,256,0z"/>
<g>
	<path style="fill:#F28544;" d="M484.75,319.277c-68.517-32.491-146.995-62.634-227.8-87.341c-5.92-1.809-11.81-3.514-17.711-5.255
		c7.087-20.47,15.568-40.145,25.323-58.866c33.492,11.707,71.793,18.366,112.456,18.366c35.35,0,69.191-4.998,100.812-14.564
		c10.015,26.239,15.552,54.668,15.552,84.382C493.382,277.914,490.335,299.118,484.75,319.277z"/>
	<path style="fill:#F28544;" d="M470.468,154.35c-29.317,8.65-60.661,13.214-93.45,13.214c-37.41,0-72.647-5.834-103.473-16.089
		c24.213-41.793,55.001-78.098,91.105-106.425C410.76,68.898,448.113,107.373,470.468,154.35z"/>
	<path style="fill:#F28544;" d="M345.872,36.339c-35.6,29.5-66.018,66.418-90.021,108.561
		c-55.818-23.002-93.623-61.396-97.298-105.273C188.308,26.173,221.279,18.618,256,18.618
		C287.797,18.618,318.132,24.948,345.872,36.339z"/>
	<path style="fill:#F28544;" d="M140.907,48.484c7.514,47.052,48.014,87.841,106.212,112.564
		c-9.918,19.25-18.552,39.441-25.773,60.42c-65.026-18.5-128.66-32.768-189.797-42.589C50.749,123.161,90.106,76.773,140.907,48.484
		z"/>
	<path style="fill:#F28544;" d="M26.081,196.845c60.995,9.691,124.568,23.891,189.572,42.364
		c-6.969,23.195-12.358,47.171-15.817,71.782c-0.481,3.423-0.771,6.857-1.178,10.286c-18.793-3.109-38.472-4.768-58.74-4.768
		c-37.086,0-72.586,5.336-105.514,15.855c-0.993,0.318-1.823,0.873-2.618,1.459c-8.493-24.4-13.169-50.568-13.169-77.823
		C18.618,235.584,21.211,215.764,26.081,196.845z"/>
	<path style="fill:#F28544;" d="M38.205,350.302c0.624-0.066,1.241-0.007,1.864-0.202c31.095-9.936,64.691-14.973,99.85-14.973
		c19.659,0,38.704,1.634,56.841,4.65c-4.045,50.695,0.012,101.384,11.852,148.843C131.975,473.032,68.671,420.391,38.205,350.302z"
		/>
	<path style="fill:#F28544;" d="M228.635,491.755c-12.713-47.027-17.274-97.666-13.455-148.393
		c83.61,18.961,143.425,68.568,143.498,126.643c-31.091,14.977-65.921,23.377-102.677,23.377
		C246.74,493.382,237.621,492.791,228.635,491.755z"/>
	<path style="fill:#F28544;" d="M376.759,460.254c-6.195-62.936-71.203-115.659-159.78-135.391
		c0.435-3.761,0.765-7.527,1.293-11.282c3.335-23.732,8.531-46.836,15.248-69.173c5.991,1.766,11.971,3.498,17.984,5.336
		c80.854,24.718,159.331,54.911,227.572,87.43C460.148,389.027,423.61,432.45,376.759,460.254z"/>
</g>
<g>
</g>
<g>
</g>
<g>
</g>
<g>
</g>
<g>
</g>
<g>
</g>
<g>
</g>
<g>
</g>
<g>
</g>
<g>
</g>
<g>
</g>
<g>
</g>
<g>
</g>
<g>
</g>
<g>
</g>
</svg>
