<?xml version="1.0" encoding="iso-8859-1"?>
<!-- Generator: Adobe Illustrator 19.0.0, SVG Export Plug-In . SVG Version: 6.00 Build 0)  -->
<svg version="1.1" id="Capa_1" xmlns="http://www.w3.org/2000/svg" xmlns:xlink="http://www.w3.org/1999/xlink" x="0px" y="0px"
	 viewBox="0 0 512.008 512.008" style="enable-background:new 0 0 512.008 512.008;" xml:space="preserve">
<path style="fill:#DFE6F4;" d="M417.44,228.316h-7.584c-7.544-31.728-36.136-55.504-70.336-55.504
	c-8.312,0-16.728,1.832-23.696,4.152c-16.728-47.472-62.024-81.568-115.448-81.568c-67.632,0-122.456,54.544-122.456,121.84
	c0,4.24,0.232,8.416,0.64,12.552C34.112,237.436,0,276.132,0,322.452c0,51.776,42.576,94.16,94.608,94.16H417.4
	c52.032,0,94.608-42.36,94.608-94.16C512.04,270.692,469.472,228.316,417.44,228.316z"/>
<g>
</g>
<g>
</g>
<g>
</g>
<g>
</g>
<g>
</g>
<g>
</g>
<g>
</g>
<g>
</g>
<g>
</g>
<g>
</g>
<g>
</g>
<g>
</g>
<g>
</g>
<g>
</g>
<g>
</g>
</svg>
