<?xml version="1.0" encoding="iso-8859-1"?>
<!-- Generator: Adobe Illustrator 16.0.0, SVG Export Plug-In . SVG Version: 6.00 Build 0)  -->
<!DOCTYPE svg PUBLIC "-//W3C//DTD SVG 1.1//EN" "http://www.w3.org/Graphics/SVG/1.1/DTD/svg11.dtd">
<svg xmlns="http://www.w3.org/2000/svg" xmlns:xlink="http://www.w3.org/1999/xlink" version="1.1" id="Capa_1" x="0px" y="0px" width="512px" height="512px" viewBox="0 0 973 973" style="enable-background:new 0 0 973 973;" xml:space="preserve">
<g>
	<g>
		<path d="M943,125.952H30c-16.568,0-30,13.432-30,30v661.096c0,16.568,13.432,30,30,30c16.568,0,30-13.432,30-30V789.71h853v27.338    c0,16.568,13.432,30,30,30s30-13.432,30-30V155.952C973,139.384,959.568,125.952,943,125.952z M816.008,185.952l-15.729,15.727    l-15.727-15.727H816.008z M215.457,536.009l-41.41,41.41l-41.41-41.41l41.41-41.41L215.457,536.009z M132.636,410.762    l41.411-41.411l41.411,41.411l-41.411,41.411L132.636,410.762z M195.259,473.386l41.411-41.411l41.41,41.41l-41.411,41.411    L195.259,473.386z M257.883,410.762l41.41-41.41l41.409,41.41l-41.409,41.41L257.883,410.762z M299.293,494.598l41.41,41.411    l-41.41,41.411l-41.411-41.411L299.293,494.598z M320.506,473.385l41.41-41.41l41.41,41.411l-41.409,41.41L320.506,473.385z     M383.13,410.762l41.411-41.411l41.41,41.411l-41.411,41.411L383.13,410.762z M424.541,494.598l41.409,41.41l-41.409,41.41    l-41.41-41.41L424.541,494.598z M445.753,473.386l41.411-41.411l41.41,41.41l-41.412,41.411L445.753,473.386z M508.377,410.762    l41.41-41.41l41.41,41.41l-41.41,41.41L508.377,410.762z M549.787,494.598l41.41,41.411l-41.41,41.411l-41.41-41.411    L549.787,494.598z M571,473.385l41.41-41.41l41.41,41.411l-41.41,41.41L571,473.385z M633.623,410.762l41.41-41.411l41.412,41.411    l-41.412,41.411L633.623,410.762z M675.033,494.598l41.41,41.41l-41.41,41.41l-41.408-41.41L675.033,494.598z M696.246,473.386    l41.412-41.411l41.41,41.41l-41.41,41.411L696.246,473.386z M800.281,494.598l41.41,41.411l-41.41,41.411l-41.412-41.411    L800.281,494.598z M758.869,410.762l41.41-41.41l41.412,41.41l-41.412,41.41L758.869,410.762z M737.656,389.549l-41.41-41.411    l41.41-41.41l41.41,41.411L737.656,389.549z M675.033,326.926l-41.408-41.41l41.408-41.41l41.41,41.41L675.033,326.926z     M653.82,348.138l-41.41,41.411L571,348.139l41.41-41.411L653.82,348.138z M549.787,326.926l-41.41-41.411l41.41-41.411    l41.41,41.411L549.787,326.926z M528.574,348.139l-41.41,41.41l-41.411-41.411l41.409-41.41L528.574,348.139z M424.541,326.926    l-41.41-41.41l41.41-41.41l41.409,41.41L424.541,326.926z M403.327,348.138l-41.41,41.411l-41.41-41.41l41.411-41.411    L403.327,348.138z M299.293,326.926l-41.411-41.411l41.411-41.411l41.41,41.411L299.293,326.926z M278.08,348.139l-41.41,41.41    l-41.411-41.411l41.41-41.41L278.08,348.139z M174.047,326.926l-41.41-41.41l41.41-41.41l41.41,41.41L174.047,326.926z     M152.834,348.138l-41.411,41.411l-41.41-41.41l41.411-41.411L152.834,348.138z M152.834,473.386l-41.41,41.41l-41.411-41.411    l41.41-41.41L152.834,473.386z M152.834,598.632l-38.959,38.959l-41.41-41.41l38.959-38.959L152.834,598.632z M174.047,619.845    l41.411,41.411l-38.959,38.959l-41.411-41.411L174.047,619.845z M195.259,598.632l41.41-41.41l41.411,41.411l-41.41,41.41    L195.259,598.632z M299.293,619.845l41.409,41.41l-41.409,41.41l-41.41-41.41L299.293,619.845z M320.506,598.632l41.411-41.411    l41.409,41.41l-41.41,41.411L320.506,598.632z M424.541,619.845l41.41,41.411l-41.41,41.411l-41.411-41.411L424.541,619.845z     M445.753,598.632l41.411-41.41l41.41,41.411l-41.41,41.41L445.753,598.632z M549.787,619.845l41.41,41.41l-41.41,41.41    l-41.41-41.41L549.787,619.845z M571,598.632l41.41-41.411l41.41,41.41l-41.41,41.412L571,598.632z M675.033,619.845    l41.412,41.411l-41.412,41.411l-41.41-41.411L675.033,619.845z M696.246,598.632l41.41-41.41l41.412,41.411l-41.41,41.41    L696.246,598.632z M800.281,619.845l38.959,38.959l-41.41,41.41l-38.959-38.959L800.281,619.845z M821.494,598.632l41.41-41.411    l38.959,38.959l-41.41,41.411L821.494,598.632z M821.494,473.385l41.41-41.41l41.412,41.41l-41.412,41.411L821.494,473.385z     M821.494,348.139l41.41-41.411l41.412,41.411l-41.412,41.41L821.494,348.139z M800.281,326.926l-41.412-41.411l41.412-41.411    l41.41,41.411L800.281,326.926z M733.186,185.952h8.943l36.938,36.939l-41.41,41.411l-41.41-41.41L733.186,185.952z     M690.762,185.952l-15.729,15.727l-15.727-15.727H690.762z M607.939,185.952h8.941l36.939,36.94l-41.41,41.41L571,222.891    L607.939,185.952z M565.514,185.952l-15.727,15.727l-15.727-15.727H565.514z M482.693,185.952h8.942l36.939,36.939l-41.412,41.411    l-41.409-41.41L482.693,185.952z M440.267,185.952l-15.727,15.727l-15.728-15.727H440.267z M357.446,185.952h8.942l36.939,36.94    l-41.409,41.41l-41.411-41.411L357.446,185.952z M315.02,185.952l-15.727,15.727l-15.728-15.727H315.02z M232.199,185.952h8.942    l36.939,36.939l-41.411,41.411l-41.41-41.41L232.199,185.952z M189.773,185.952l-15.727,15.727l-15.727-15.727H189.773z     M60,185.952h55.894l36.94,36.94l-41.41,41.41L60,212.879V185.952z M60,255.305l30.21,30.21L60,315.725V255.305z M60,380.552    l30.21,30.21L60,440.972V380.552z M60,505.799l30.21,30.21L60,566.219V505.799z M60,626.143l32.661,32.661L60,691.465V626.143z     M117.003,759.71H60v-25.819l53.874-53.874l41.411,41.411L117.003,759.71z M159.429,759.71l17.069-17.069l17.069,17.069H159.429    L159.429,759.71z M242.249,759.71h-6.256l-38.282-38.282l38.959-38.959l41.41,41.41L242.249,759.71z M284.675,759.71    l14.618-14.618l14.617,14.618H284.675z M367.497,759.71h-11.159l-35.831-35.831l41.41-41.41l41.41,41.411L367.497,759.71z     M409.922,759.71l14.618-14.618l14.617,14.618H409.922z M492.742,759.71h-11.158l-35.831-35.831l41.411-41.411l41.41,41.41    L492.742,759.71z M535.17,759.71l14.617-14.618l14.617,14.618H535.17z M617.99,759.71h-11.158L571,723.879l41.41-41.41    l41.41,41.411L617.99,759.71z M660.416,759.71l14.617-14.618l14.619,14.618H660.416z M738.334,759.71h-6.256l-35.83-35.831    l41.41-41.411l38.959,38.959L738.334,759.71z M780.76,759.71l17.07-17.07l17.07,17.07H780.76z M913,759.71h-55.676l-38.281-38.282    l41.408-41.41L913,732.565V759.71L913,759.71z M913,690.139l-31.334-31.335L913,627.469V690.139z M913,564.892l-28.883-28.883    L913,507.126V564.892z M913,439.645l-28.883-28.883L913,381.879V439.645z M913,314.399l-28.883-28.883L913,256.633V314.399z     M913,214.206l-50.096,50.096l-41.412-41.411l36.939-36.939H913V214.206L913,214.206z" fill="#FFFFFF"/>
	</g>
</g>
<g>
</g>
<g>
</g>
<g>
</g>
<g>
</g>
<g>
</g>
<g>
</g>
<g>
</g>
<g>
</g>
<g>
</g>
<g>
</g>
<g>
</g>
<g>
</g>
<g>
</g>
<g>
</g>
<g>
</g>
</svg>
